<svg version="1.1" xmlns="http://www.w3.org/2000/svg" width="549" height="512" viewBox="0 0 549 512"><title>desktop</title><path d="M512 283.428v-237.714c0-4.857-4.286-9.143-9.143-9.143h-457.143c-4.857 0-9.143 4.285-9.143 9.143v237.714c0 4.857 4.285 9.143 9.143 9.143h457.143c4.857 0 9.143-4.286 9.143-9.143zM548.572 45.715v310.857c0 25.143-20.572 45.714-45.714 45.714h-155.429c0 24.286 18.286 44.857 18.286 54.857s-8.286 18.286-18.286 18.286h-146.286c-10 0-18.286-8.286-18.286-18.286 0-10.572 18.286-30 18.286-54.857h-155.429c-25.143 0-45.715-20.572-45.715-45.714v-310.857c0-25.143 20.572-45.715 45.715-45.715h457.143c25.143 0 45.715 20.572 45.715 45.715z"></path></svg>