<svg version="1.1" xmlns="http://www.w3.org/2000/svg" width="512" height="512" viewBox="0 0 512 512"><title>list-alt</title><path d="M109.715 338.286v18.286c0 4.857-4.285 9.143-9.143 9.143h-18.285c-4.857 0-9.143-4.286-9.143-9.143v-18.286c0-4.857 4.285-9.143 9.143-9.143h18.285c4.857 0 9.143 4.286 9.143 9.143zM109.715 265.143v18.286c0 4.857-4.285 9.143-9.143 9.143h-18.285c-4.857 0-9.143-4.286-9.143-9.143v-18.286c0-4.857 4.285-9.143 9.143-9.143h18.285c4.857 0 9.143 4.285 9.143 9.143zM109.715 192v18.286c0 4.857-4.285 9.143-9.143 9.143h-18.285c-4.857 0-9.143-4.286-9.143-9.143v-18.286c0-4.857 4.285-9.143 9.143-9.143h18.285c4.857 0 9.143 4.286 9.143 9.143zM438.857 338.286v18.286c0 4.857-4.286 9.143-9.143 9.143h-274.286c-4.857 0-9.143-4.286-9.143-9.143v-18.286c0-4.857 4.286-9.143 9.143-9.143h274.286c4.857 0 9.143 4.286 9.143 9.143zM438.857 265.143v18.286c0 4.857-4.286 9.143-9.143 9.143h-274.286c-4.857 0-9.143-4.286-9.143-9.143v-18.286c0-4.857 4.286-9.143 9.143-9.143h274.286c4.857 0 9.143 4.285 9.143 9.143zM438.857 192v18.286c0 4.857-4.286 9.143-9.143 9.143h-274.286c-4.857 0-9.143-4.286-9.143-9.143v-18.286c0-4.857 4.286-9.143 9.143-9.143h274.286c4.857 0 9.143 4.286 9.143 9.143zM475.428 393.143v-237.714c0-4.857-4.286-9.143-9.143-9.143h-420.572c-4.857 0-9.143 4.286-9.143 9.143v237.714c0 4.857 4.285 9.143 9.143 9.143h420.572c4.857 0 9.143-4.286 9.143-9.143zM512 82.285v310.857c0 25.143-20.572 45.714-45.714 45.714h-420.572c-25.143 0-45.715-20.572-45.715-45.714v-310.857c0-25.143 20.572-45.715 45.715-45.715h420.572c25.143 0 45.714 20.572 45.714 45.715z"></path></svg>