<svg version="1.1" xmlns="http://www.w3.org/2000/svg" width="293" height="512" viewBox="0 0 293 512"><title>map-marker</title><path d="M219.429 182.857c0-40.285-32.857-73.143-73.143-73.143s-73.143 32.857-73.143 73.143 32.857 73.143 73.143 73.143 73.143-32.857 73.143-73.143zM292.572 182.857c0 17.429-2 35.429-9.428 51.143l-104 221.143c-6 12.572-19.143 20.286-32.857 20.286s-26.857-7.714-32.572-20.286l-104.285-221.143c-7.428-15.714-9.428-33.715-9.428-51.143 0-80.857 65.428-146.286 146.286-146.286s146.286 65.428 146.286 146.286z"></path></svg>