<svg version="1.1" xmlns="http://www.w3.org/2000/svg" width="512" height="512" viewBox="0 0 512 512"><title>video-camera</title><path d="M512 100.572v310.857c0 7.428-4.572 14-11.143 16.857-2.286 0.857-4.857 1.428-7.143 1.428-4.857 0-9.428-1.714-12.857-5.428l-115.143-115.143v47.428c0 45.428-36.857 82.286-82.286 82.286h-201.143c-45.428 0-82.285-36.857-82.285-82.286v-201.143c0-45.428 36.857-82.285 82.285-82.285h201.143c45.428 0 82.286 36.857 82.286 82.285v47.143l115.143-114.857c3.428-3.715 8-5.428 12.857-5.428 2.286 0 4.857 0.572 7.143 1.428 6.572 2.857 11.143 9.428 11.143 16.857z"></path></svg>